<svg xmlns="http://www.w3.org/2000/svg" viewBox="0 0 239.59 38.4"><defs><style>.cls-1{fill:#fff;}</style></defs><g id="Layer_2" data-name="Layer 2"><g id="Layer_1-2" data-name="Layer 1"><path class="cls-1" d="M28,.64C20.23.64,12.17,2.38,4,4.63A4.19,4.19,0,0,0,1.46,6.35,6.7,6.7,0,0,0,.64,8.76,64.11,64.11,0,0,0,.11,22.35a6.82,6.82,0,0,0,.72,3.21A3.68,3.68,0,0,0,3.39,27c1.41.21,2.82.38,4.23.52l-.31,8.7A1.86,1.86,0,0,0,8,37.86a2.25,2.25,0,0,0,1.22.45,2.46,2.46,0,0,0,2.37-1.26,31.59,31.59,0,0,1,6.32-8.9,199.33,199.33,0,0,0,20.48-.74,5.22,5.22,0,0,0,4.67-3.74c1.36-4.24,1.57-9.46,1.72-14.74a6.77,6.77,0,0,0-1.95-5.24A10.43,10.43,0,0,0,38.79,2,52,52,0,0,0,28,.64ZM38.25,4a9.3,9.3,0,0,1,3.31,1.34A4.2,4.2,0,0,1,42.76,9c-.14,5.12-.39,10.1-1.55,13.86a3.36,3.36,0,0,1-3,2.56,196,196,0,0,1-20.71.74,1,1,0,0,0-.76.3,33.8,33.8,0,0,0-6.92,9.67.37.37,0,0,1-.32.18.15.15,0,0,1-.14-.15l.31-9.43a1,1,0,0,0-.9-1.05c-1.7-.16-3.38-.37-5.06-.62-.73-.11-1-.31-1.2-.61a5.18,5.18,0,0,1-.36-2.12,62.85,62.85,0,0,1,.49-13.1,6,6,0,0,1,.54-1.77,2.41,2.41,0,0,1,1.65-.9c8-2.2,15.74-3.84,23.06-3.84A50.54,50.54,0,0,1,38.25,4ZM10.77,12a3.52,3.52,0,0,0-.14,4.29,2.89,2.89,0,0,0,2,1.24,3.64,3.64,0,0,0,2.53-.86A3.56,3.56,0,0,0,15.59,12a2.86,2.86,0,0,0-2.22-1.24A3.31,3.31,0,0,0,10.77,12ZM22.62,11a3.26,3.26,0,0,0-2.51,1.61,3.35,3.35,0,0,0-.48,3.24c1,2.2,4.28,2.18,5.6-.06a3.11,3.11,0,0,0,0-3.06A3,3,0,0,0,23.1,11,1.94,1.94,0,0,0,22.62,11Zm9.63.21a3.51,3.51,0,0,0-1,.11A3.18,3.18,0,0,0,29,14.72a3.27,3.27,0,0,0,4.09,2.93,3.08,3.08,0,0,0,2.32-2.27A3.19,3.19,0,0,0,35,12.56a3.43,3.43,0,0,0-2.72-1.38Zm-19,1.62a.71.71,0,0,1,.64.36,1.64,1.64,0,0,1-.13,2,1.16,1.16,0,0,1-.92.4.9.9,0,0,1-.57-.42,1.46,1.46,0,0,1,1-2.35Zm9.49.22a1.68,1.68,0,0,1,.67.64,1,1,0,0,1,0,1.06,1.23,1.23,0,0,1-2,.29,2,2,0,0,1,.32-1.32c.34-.51.76-.7,1-.67Zm10.56.75a1.87,1.87,0,0,1,.1,1.08.94.94,0,0,1-.78.81,1.33,1.33,0,0,1-1.2-.2,1.43,1.43,0,0,1-.46-.93c-.09-.92.24-1.13.77-1.27A1.56,1.56,0,0,1,33.33,13.77Z"/><path class="cls-1" d="M57.6,4.76a1.15,1.15,0,0,1,.29-.7.85.85,0,0,1,.7-.31h6.82a1.2,1.2,0,0,1,.72.28.87.87,0,0,1,.36.73V15.65H77.92V4.76A1,1,0,0,1,78.2,4a1,1,0,0,1,.75-.3h6.73a1.45,1.45,0,0,1,.81.23.83.83,0,0,1,.34.74V36.86a.94.94,0,0,1-.3.76,1.16,1.16,0,0,1-.78.25H79a1.08,1.08,0,0,1-.75-.25,1,1,0,0,1-.28-.76v-13H66.49V36.86a.93.93,0,0,1-.31.75,1.26,1.26,0,0,1-.84.26H58.59c-.64,0-1-.3-1-.89Zm62.88,32.72a1.34,1.34,0,0,1-.64.32,2.65,2.65,0,0,1-.63.07h-3.47a1.58,1.58,0,0,1-.71-.15,1.54,1.54,0,0,1-.51-.4,2.53,2.53,0,0,1-.34-.57,5.3,5.3,0,0,1-.23-.67l-.71-2.94a12.42,12.42,0,0,1-1,1.62,9,9,0,0,1-1.67,1.7,9.24,9.24,0,0,1-2.41,1.33,9,9,0,0,1-3.22.54,11.06,11.06,0,0,1-4.76-1,10.92,10.92,0,0,1-3.64-2.76,12.6,12.6,0,0,1-2.33-4.08,14.77,14.77,0,0,1-.83-5v-15a2,2,0,0,1,.38-1.33A1.53,1.53,0,0,1,95,8.69h5.31a2,2,0,0,1,1.35.33,1.71,1.71,0,0,1,.37,1.3v15a4.06,4.06,0,0,0,.45,1.87,5.45,5.45,0,0,0,1.18,1.56,5.54,5.54,0,0,0,1.67,1.07,4.85,4.85,0,0,0,1.89.39,4.28,4.28,0,0,0,1.72-.39,6.36,6.36,0,0,0,1.63-1,6,6,0,0,0,1.23-1.54,3.89,3.89,0,0,0,.48-1.87V10.39a2.16,2.16,0,0,1,.15-.78,1.26,1.26,0,0,1,.45-.6,1.94,1.94,0,0,1,.56-.25,2.27,2.27,0,0,1,.61-.07h5.19a1.85,1.85,0,0,1,1.43.48,1.85,1.85,0,0,1,.43,1.29V36.17a1.73,1.73,0,0,1-.19.81,1.48,1.48,0,0,1-.54.57Zm26.68-3.17c-.42.41-.87.86-1.37,1.33A14.48,14.48,0,0,1,144.15,37a9.89,9.89,0,0,1-1.93,1,6.11,6.11,0,0,1-2.23.4,14,14,0,0,1-5.76-1.17A13.76,13.76,0,0,1,129.7,34a14.7,14.7,0,0,1-3-4.79,16.31,16.31,0,0,1-1.07-5.93,16.28,16.28,0,0,1,1.07-5.94,14.87,14.87,0,0,1,3-4.78,13.7,13.7,0,0,1,4.53-3.19A14,14,0,0,1,140,8.23a7.08,7.08,0,0,1,2.31.36,8.44,8.44,0,0,1,1.9.95,10,10,0,0,1,1.59,1.29c.48.49.94,1,1.37,1.42V1.75A1.83,1.83,0,0,1,147.6.51,1.71,1.71,0,0,1,149,0h5.17a1.65,1.65,0,0,1,.63.13,2.06,2.06,0,0,1,.61.35,2.17,2.17,0,0,1,.45.55,1.59,1.59,0,0,1,.17.72V36.1q0,1.77-1.86,1.77h-4.5a1.94,1.94,0,0,1-.72-.11,1.15,1.15,0,0,1-.42-.34,2.11,2.11,0,0,1-.31-.55c-.11-.26-.23-.51-.35-.77l-.66-1.79Zm-13.22-11a8.3,8.3,0,0,0,.47,2.84,7,7,0,0,0,1.35,2.29,6.19,6.19,0,0,0,2.1,1.52,6.4,6.4,0,0,0,2.72.57,7.3,7.3,0,0,0,2.77-.53,7.18,7.18,0,0,0,2.27-1.46,7.33,7.33,0,0,0,1.55-2.19,7.15,7.15,0,0,0,.65-2.72V23.3a7.1,7.1,0,0,0-.55-2.8,7.27,7.27,0,0,0-3.82-3.94,6.93,6.93,0,0,0-2.87-.59,6.26,6.26,0,0,0-2.72.59,6.35,6.35,0,0,0-2.1,1.59,7.35,7.35,0,0,0-1.35,2.35,8.62,8.62,0,0,0-.47,2.8Zm48.72,11c-.41.41-.87.86-1.37,1.33A12.9,12.9,0,0,1,179.65,37a9.89,9.89,0,0,1-1.93,1,6.07,6.07,0,0,1-2.23.4,14,14,0,0,1-5.75-1.17A13.56,13.56,0,0,1,165.21,34a14.72,14.72,0,0,1-3-4.79,16.31,16.31,0,0,1-1.07-5.93,16.28,16.28,0,0,1,1.07-5.94,14.89,14.89,0,0,1,3-4.78,13.5,13.5,0,0,1,4.53-3.19,14,14,0,0,1,5.75-1.16,7.08,7.08,0,0,1,2.31.36,8.73,8.73,0,0,1,1.91.95,10.35,10.35,0,0,1,1.58,1.29c.49.49.94,1,1.37,1.42V1.75a1.79,1.79,0,0,1,.45-1.24A1.7,1.7,0,0,1,184.45,0h5.17a1.74,1.74,0,0,1,.64.13,2.19,2.19,0,0,1,.61.35,1.94,1.94,0,0,1,.44.55,1.48,1.48,0,0,1,.18.72V36.1c0,1.18-.62,1.77-1.87,1.77h-4.5a1.88,1.88,0,0,1-.71-.11,1.18,1.18,0,0,1-.43-.34,2.45,2.45,0,0,1-.31-.55c-.1-.26-.22-.51-.34-.77l-.67-1.79Zm-13.21-11a8.3,8.3,0,0,0,.47,2.84,6.78,6.78,0,0,0,1.34,2.29A6.22,6.22,0,0,0,173.37,30a6.37,6.37,0,0,0,2.72.57,7.34,7.34,0,0,0,2.77-.53,7,7,0,0,0,2.26-1.46,7.16,7.16,0,0,0,1.55-2.19,7.35,7.35,0,0,0,.66-2.72V23.3a7.47,7.47,0,0,0-.55-2.8,7.63,7.63,0,0,0-1.53-2.35,7.46,7.46,0,0,0-2.3-1.59,6.88,6.88,0,0,0-2.86-.59,6.23,6.23,0,0,0-2.72.59,6.49,6.49,0,0,0-2.11,1.59,7.32,7.32,0,0,0-1.34,2.35,8.11,8.11,0,0,0-.47,2.8ZM197.6,1.77A2,2,0,0,1,198,.53,1.44,1.44,0,0,1,199.23,0h5.63a1,1,0,0,1,.48.13,1.68,1.68,0,0,1,.48.36,2,2,0,0,1,.36.55,1.64,1.64,0,0,1,.15.71V36.1a1.69,1.69,0,0,1-.49,1.32,1.84,1.84,0,0,1-1.28.45h-5.33a1.53,1.53,0,0,1-1.26-.45,2,2,0,0,1-.37-1.32Zm38.7,32.61a15.43,15.43,0,0,1-4.55,2.91,13.85,13.85,0,0,1-5.35,1A15.61,15.61,0,0,1,215.53,34a15.27,15.27,0,0,1-3.36-4.79,14.42,14.42,0,0,1-1.24-6,15.48,15.48,0,0,1,.49-3.92,15.29,15.29,0,0,1,1.41-3.55,14.91,14.91,0,0,1,2.2-3,14.16,14.16,0,0,1,2.91-2.38,14.25,14.25,0,0,1,11.17-1.59,14.71,14.71,0,0,1,3.36,1.43,14.71,14.71,0,0,1,5.14,5,13.44,13.44,0,0,1,1.46,3.26,12.65,12.65,0,0,1,.52,3.58c0,.79,0,1.44,0,1.95a2.25,2.25,0,0,1-.35,1.21,1.76,1.76,0,0,1-1.07.62,10.88,10.88,0,0,1-2.2.17H219.39a5.65,5.65,0,0,0,.93,2.46A5.77,5.77,0,0,0,221.94,30a6.47,6.47,0,0,0,1.95.84,8,8,0,0,0,2,.25,8.31,8.31,0,0,0,1.7-.17,12,12,0,0,0,1.69-.46,9.15,9.15,0,0,0,1.5-.67,4.87,4.87,0,0,0,1.09-.79,4.26,4.26,0,0,1,.63-.45,1.12,1.12,0,0,1,.56-.15,1.07,1.07,0,0,1,.61.21,4.52,4.52,0,0,1,.7.6L236.76,32a1.43,1.43,0,0,1,.32.54,1.61,1.61,0,0,1,.07.49,1.24,1.24,0,0,1-.25.79,2.8,2.8,0,0,1-.6.59ZM225.25,15.24a4.54,4.54,0,0,0-1.74.35,6.3,6.3,0,0,0-1.57,1,8,8,0,0,0-1.32,1.35,8.24,8.24,0,0,0-1,1.54H231.4a12.35,12.35,0,0,0-1-1.65,7.12,7.12,0,0,0-1.29-1.34,5.38,5.38,0,0,0-1.65-.89A6.52,6.52,0,0,0,225.25,15.24Z"/></g></g></svg>